<?xml version="1.0" encoding="UTF-8" standalone="no"?>
<!DOCTYPE svg PUBLIC "-//W3C//DTD SVG 1.1//EN"
 "http://www.w3.org/Graphics/SVG/1.1/DTD/svg11.dtd">
<!-- Generated by graphviz version 2.43.0 (0)
 -->
<!-- Title: MCP_Testing_Environment Pages: 1 -->
<svg width="897pt" height="513pt"
 viewBox="0.00 0.00 896.59 513.00" xmlns="http://www.w3.org/2000/svg" xmlns:xlink="http://www.w3.org/1999/xlink">
<g id="graph0" class="graph" transform="scale(1 1) rotate(0) translate(4 509)">
<title>MCP_Testing_Environment</title>
<polygon fill="white" stroke="transparent" points="-4,4 -4,-509 892.59,-509 892.59,4 -4,4"/>
<g id="clust1" class="cluster">
<title>cluster_testing_environment</title>
<polygon fill="lightgrey" stroke="lightgrey" points="12.59,-158 12.59,-497 625.59,-497 625.59,-158 12.59,-158"/>
<text text-anchor="middle" x="319.09" y="-481.8" font-family="Times,serif" font-size="14.00">MCP Testing Environment</text>
</g>
<!-- TestingUI -->
<g id="node1" class="node">
<title>TestingUI</title>
<polygon fill="lightblue" stroke="black" points="260.59,-466 120.59,-466 120.59,-430 260.59,-430 260.59,-466"/>
<text text-anchor="middle" x="190.59" y="-444.9" font-family="Arial" font-size="12.00">Testing Environment UI</text>
</g>
<!-- ClientSim -->
<g id="node2" class="node">
<title>ClientSim</title>
<polygon fill="lightgreen" stroke="black" points="523.09,-285 392.09,-285 392.09,-249 523.09,-249 523.09,-285"/>
<text text-anchor="middle" x="457.59" y="-263.9" font-family="Arial" font-size="12.00">MCP Client Simulator</text>
</g>
<!-- TestingUI&#45;&gt;ClientSim -->
<g id="edge1" class="edge">
<title>TestingUI&#45;&gt;ClientSim</title>
<path fill="none" stroke="black" d="M260.6,-437.84C319.97,-426 401.8,-399.19 442.59,-339 445.11,-335.28 449.48,-313.62 452.86,-295.2"/>
<polygon fill="black" stroke="black" points="456.34,-295.61 454.66,-285.15 449.45,-294.38 456.34,-295.61"/>
</g>
<!-- LogAggregator -->
<g id="node3" class="node">
<title>LogAggregator</title>
<polygon fill="lightyellow" stroke="black" points="415.59,-202 267.59,-202 267.59,-166 415.59,-166 415.59,-202"/>
<text text-anchor="middle" x="341.59" y="-180.9" font-family="Arial" font-size="12.00">Log Aggregation System</text>
</g>
<!-- TestingUI&#45;&gt;LogAggregator -->
<g id="edge2" class="edge">
<title>TestingUI&#45;&gt;LogAggregator</title>
<path fill="none" stroke="black" d="M162.49,-429.89C111.67,-396.66 13.15,-320.37 51.59,-249 62.69,-228.38 73.68,-228.3 95.59,-220 124.47,-209.06 198.03,-199.41 257.24,-193.02"/>
<polygon fill="black" stroke="black" points="257.78,-196.49 267.36,-191.95 257.04,-189.52 257.78,-196.49"/>
</g>
<!-- DockerManager -->
<g id="node4" class="node">
<title>DockerManager</title>
<polygon fill="lightpink" stroke="black" points="374.09,-285 213.09,-285 213.09,-249 374.09,-249 374.09,-285"/>
<text text-anchor="middle" x="293.59" y="-263.9" font-family="Arial" font-size="12.00">Docker Container Manager</text>
</g>
<!-- TestingUI&#45;&gt;DockerManager -->
<g id="edge3" class="edge">
<title>TestingUI&#45;&gt;DockerManager</title>
<path fill="none" stroke="black" d="M188.87,-429.98C185.85,-396.31 181.16,-322.74 195.59,-303 198.99,-298.35 203.06,-294.32 207.58,-290.82"/>
<polygon fill="black" stroke="black" points="209.8,-293.54 216.17,-285.08 205.91,-287.73 209.8,-293.54"/>
</g>
<!-- WebUITester -->
<g id="node5" class="node">
<title>WebUITester</title>
<polygon fill="lightcyan" stroke="black" points="617.09,-339 454.09,-339 454.09,-303 617.09,-303 617.09,-339"/>
<text text-anchor="middle" x="535.59" y="-317.9" font-family="Arial" font-size="12.00">Web UI Testing Component</text>
</g>
<!-- TestingUI&#45;&gt;WebUITester -->
<g id="edge4" class="edge">
<title>TestingUI&#45;&gt;WebUITester</title>
<path fill="none" stroke="black" d="M260.67,-443C326.69,-438.28 420.16,-428.85 452.59,-412 480.97,-397.25 504.67,-368.74 519.38,-347.74"/>
<polygon fill="black" stroke="black" points="522.41,-349.51 525.12,-339.27 516.61,-345.58 522.41,-349.51"/>
</g>
<!-- ConfigManager -->
<g id="node6" class="node">
<title>ConfigManager</title>
<polygon fill="lavender" stroke="black" points="353.09,-393 214.09,-393 214.09,-357 353.09,-357 353.09,-393"/>
<text text-anchor="middle" x="283.59" y="-371.9" font-family="Arial" font-size="12.00">Configuration Manager</text>
</g>
<!-- TestingUI&#45;&gt;ConfigManager -->
<g id="edge5" class="edge">
<title>TestingUI&#45;&gt;ConfigManager</title>
<path fill="none" stroke="black" d="M213.1,-429.81C225.09,-420.66 240.02,-409.26 253.05,-399.32"/>
<polygon fill="black" stroke="black" points="255.46,-401.88 261.28,-393.03 251.21,-396.32 255.46,-401.88"/>
</g>
<!-- DiscordSim -->
<g id="node7" class="node">
<title>DiscordSim</title>
<polygon fill="palegreen" stroke="black" points="194.59,-285 60.59,-285 60.59,-249 194.59,-249 194.59,-285"/>
<text text-anchor="middle" x="127.59" y="-263.9" font-family="Arial" font-size="12.00">Discord API Simulator</text>
</g>
<!-- TestingUI&#45;&gt;DiscordSim -->
<g id="edge6" class="edge">
<title>TestingUI&#45;&gt;DiscordSim</title>
<path fill="none" stroke="black" d="M184.55,-429.84C173.54,-398.56 150.14,-332.09 137.02,-294.8"/>
<polygon fill="black" stroke="black" points="140.23,-293.38 133.61,-285.11 133.63,-295.71 140.23,-293.38"/>
</g>
<!-- ChannelData -->
<g id="node8" class="node">
<title>ChannelData</title>
<polygon fill="peachpuff" stroke="black" points="171.09,-202 30.09,-202 30.09,-166 171.09,-166 171.09,-202"/>
<text text-anchor="middle" x="100.59" y="-180.9" font-family="Arial" font-size="12.00">Channel Data Manager</text>
</g>
<!-- TestingUI&#45;&gt;ChannelData -->
<g id="edge7" class="edge">
<title>TestingUI&#45;&gt;ChannelData</title>
<path fill="none" stroke="black" d="M120.54,-439.6C85.14,-434.26 47.41,-425.55 36.59,-412 -16.65,-345.31 -6.93,-293.4 36.59,-220 39.22,-215.55 42.65,-211.63 46.54,-208.19"/>
<polygon fill="black" stroke="black" points="48.67,-210.96 54.52,-202.13 44.44,-205.39 48.67,-210.96"/>
</g>
<!-- ClientSim&#45;&gt;LogAggregator -->
<g id="edge8" class="edge">
<title>ClientSim&#45;&gt;LogAggregator</title>
<path fill="none" stroke="black" d="M436.29,-248.88C424.99,-240 410.75,-229.13 397.59,-220 391.56,-215.82 385.06,-211.55 378.68,-207.49"/>
<polygon fill="black" stroke="black" points="380.46,-204.47 370.13,-202.11 376.73,-210.4 380.46,-204.47"/>
<text text-anchor="middle" x="423.59" y="-223" font-family="Arial" font-size="10.00">Logs</text>
</g>
<!-- MCP_Server -->
<g id="node9" class="node">
<title>MCP_Server</title>
<polygon fill="coral" stroke="black" points="764.09,-202 639.09,-202 639.09,-166 764.09,-166 764.09,-202"/>
<text text-anchor="middle" x="701.59" y="-187.4" font-family="Arial" font-size="12.00">MCP Server</text>
<text text-anchor="middle" x="701.59" y="-174.4" font-family="Arial" font-size="12.00">(Discord Integration)</text>
</g>
<!-- ClientSim&#45;&gt;MCP_Server -->
<g id="edge17" class="edge">
<title>ClientSim&#45;&gt;MCP_Server</title>
<path fill="none" stroke="black" d="M533.09,-246.36C549.82,-241.64 567.38,-236.39 583.59,-231 606.11,-223.5 630.62,-214.15 651.44,-205.83"/>
<polygon fill="black" stroke="black" points="532.05,-243.02 523.36,-249.08 533.93,-249.76 532.05,-243.02"/>
<polygon fill="black" stroke="black" points="652.76,-209.08 660.73,-202.1 650.14,-202.58 652.76,-209.08"/>
<text text-anchor="middle" x="638.59" y="-223" font-family="Arial" font-size="10.00">JSON&#45;RPC</text>
</g>
<!-- DockerManager&#45;&gt;LogAggregator -->
<g id="edge9" class="edge">
<title>DockerManager&#45;&gt;LogAggregator</title>
<path fill="none" stroke="black" d="M307.5,-248.65C311.62,-243.16 315.99,-236.96 319.59,-231 323.33,-224.79 326.94,-217.83 330.1,-211.26"/>
<polygon fill="black" stroke="black" points="333.36,-212.56 334.4,-202.01 327.01,-209.61 333.36,-212.56"/>
<text text-anchor="middle" x="360.09" y="-223" font-family="Arial" font-size="10.00">Container Logs</text>
</g>
<!-- DockerManager&#45;&gt;ChannelData -->
<g id="edge16" class="edge">
<title>DockerManager&#45;&gt;ChannelData</title>
<path fill="none" stroke="black" d="M270.3,-248.8C254.74,-237.54 235.54,-224.17 226.59,-220 212.41,-213.39 196.73,-207.8 181.4,-203.16"/>
<polygon fill="black" stroke="black" points="181.96,-199.68 171.38,-200.25 180.01,-206.41 181.96,-199.68"/>
<text text-anchor="middle" x="280.59" y="-223" font-family="Arial" font-size="10.00">Storage Access</text>
</g>
<!-- Docker_Containers -->
<g id="node10" class="node">
<title>Docker_Containers</title>
<polygon fill="skyblue" stroke="black" points="759.59,-119 643.59,-119 643.59,-83 759.59,-83 759.59,-119"/>
<text text-anchor="middle" x="701.59" y="-97.9" font-family="Arial" font-size="12.00">Docker Containers</text>
</g>
<!-- DockerManager&#45;&gt;Docker_Containers -->
<g id="edge18" class="edge">
<title>DockerManager&#45;&gt;Docker_Containers</title>
<path fill="none" stroke="black" d="M384.17,-247.7C402.43,-243.02 421.31,-237.45 438.59,-231 504.7,-206.32 516.17,-188.95 579.59,-158 603.87,-146.15 631.18,-133.55 653.8,-123.3"/>
<polygon fill="black" stroke="black" points="383.25,-244.32 374.4,-250.13 384.95,-251.11 383.25,-244.32"/>
<polygon fill="black" stroke="black" points="655.5,-126.37 663.18,-119.07 652.62,-119.99 655.5,-126.37"/>
<text text-anchor="middle" x="605.09" y="-181.5" font-family="Arial" font-size="10.00">Docker API</text>
</g>
<!-- WebUITester&#45;&gt;LogAggregator -->
<g id="edge10" class="edge">
<title>WebUITester&#45;&gt;LogAggregator</title>
<path fill="none" stroke="black" d="M539.92,-302.7C542.76,-287.09 544.08,-264.28 532.59,-249 507.69,-215.9 464.96,-199.73 426.22,-191.91"/>
<polygon fill="black" stroke="black" points="426.42,-188.39 415.95,-190.01 425.14,-195.27 426.42,-188.39"/>
<text text-anchor="middle" x="570.59" y="-264.5" font-family="Arial" font-size="10.00">Web UI Logs</text>
</g>
<!-- Web_UI -->
<g id="node11" class="node">
<title>Web_UI</title>
<polygon fill="gold" stroke="black" points="779.59,-36 723.59,-36 723.59,0 779.59,0 779.59,-36"/>
<text text-anchor="middle" x="751.59" y="-14.9" font-family="Arial" font-size="12.00">Web UI</text>
</g>
<!-- WebUITester&#45;&gt;Web_UI -->
<g id="edge19" class="edge">
<title>WebUITester&#45;&gt;Web_UI</title>
<path fill="none" stroke="black" d="M627.44,-305.35C703.99,-290.46 800.59,-264.2 800.59,-226.5 800.59,-226.5 800.59,-226.5 800.59,-100 800.59,-79.06 788.45,-58.9 776.26,-43.93"/>
<polygon fill="black" stroke="black" points="626.43,-301.98 617.26,-307.29 627.74,-308.86 626.43,-301.98"/>
<polygon fill="black" stroke="black" points="778.74,-41.45 769.55,-36.18 773.45,-46.03 778.74,-41.45"/>
<text text-anchor="middle" x="844.59" y="-181.5" font-family="Arial" font-size="10.00">Browser Automation</text>
</g>
<!-- ConfigManager&#45;&gt;ClientSim -->
<g id="edge12" class="edge">
<title>ConfigManager&#45;&gt;ClientSim</title>
<path fill="none" stroke="black" d="M333.19,-356.96C343.25,-352.13 353.27,-346.18 361.59,-339 375.96,-326.59 370.37,-315.59 384.59,-303 390.09,-298.13 396.38,-293.79 402.92,-289.97"/>
<polygon fill="black" stroke="black" points="404.81,-292.92 411.93,-285.08 401.47,-286.77 404.81,-292.92"/>
<text text-anchor="middle" x="413.59" y="-318.5" font-family="Arial" font-size="10.00">Client Config</text>
</g>
<!-- ConfigManager&#45;&gt;DockerManager -->
<g id="edge13" class="edge">
<title>ConfigManager&#45;&gt;DockerManager</title>
<path fill="none" stroke="black" d="M284.01,-356.74C284.5,-342.33 285.51,-321.28 287.59,-303 287.88,-300.43 288.24,-297.76 288.63,-295.09"/>
<polygon fill="black" stroke="black" points="292.11,-295.47 290.27,-285.03 285.21,-294.34 292.11,-295.47"/>
<text text-anchor="middle" x="324.59" y="-318.5" font-family="Arial" font-size="10.00">Container Config</text>
</g>
<!-- ConfigManager&#45;&gt;DiscordSim -->
<g id="edge14" class="edge">
<title>ConfigManager&#45;&gt;DiscordSim</title>
<path fill="none" stroke="black" d="M258.52,-356.97C232.22,-339.1 190.71,-310.89 161.49,-291.04"/>
<polygon fill="black" stroke="black" points="163.09,-287.89 152.85,-285.16 159.15,-293.68 163.09,-287.89"/>
<text text-anchor="middle" x="254.09" y="-318.5" font-family="Arial" font-size="10.00">API Config</text>
</g>
<!-- DiscordSim&#45;&gt;LogAggregator -->
<g id="edge11" class="edge">
<title>DiscordSim&#45;&gt;LogAggregator</title>
<path fill="none" stroke="black" d="M143.53,-248.71C153.54,-238.87 167.24,-227.11 181.59,-220 204.97,-208.4 232.17,-200.62 257.43,-195.41"/>
<polygon fill="black" stroke="black" points="258.22,-198.82 267.37,-193.47 256.88,-191.95 258.22,-198.82"/>
<text text-anchor="middle" x="202.09" y="-223" font-family="Arial" font-size="10.00">API Logs</text>
</g>
<!-- DiscordSim&#45;&gt;ChannelData -->
<g id="edge15" class="edge">
<title>DiscordSim&#45;&gt;ChannelData</title>
<path fill="none" stroke="black" d="M105.85,-240.23C104.14,-237.25 102.67,-234.15 101.59,-231 99.56,-225.09 98.68,-218.51 98.43,-212.21"/>
<polygon fill="black" stroke="black" points="103.03,-242.31 111.48,-248.7 108.86,-238.44 103.03,-242.31"/>
<polygon fill="black" stroke="black" points="101.93,-212.07 98.52,-202.04 94.93,-212.01 101.93,-212.07"/>
<text text-anchor="middle" x="132.09" y="-223" font-family="Arial" font-size="10.00">Channel Data</text>
</g>
<!-- MCP_Server&#45;&gt;Docker_Containers -->
<g id="edge20" class="edge">
<title>MCP_Server&#45;&gt;Docker_Containers</title>
<path fill="none" stroke="black" d="M701.59,-155.77C701.59,-147.26 701.59,-137.87 701.59,-129.35"/>
<polygon fill="black" stroke="black" points="698.09,-155.82 701.59,-165.82 705.09,-155.82 698.09,-155.82"/>
<polygon fill="black" stroke="black" points="705.09,-129.15 701.59,-119.15 698.09,-129.15 705.09,-129.15"/>
<text text-anchor="middle" x="732.09" y="-140" font-family="Arial" font-size="10.00">Container API</text>
</g>
<!-- Docker_Containers&#45;&gt;Web_UI -->
<g id="edge21" class="edge">
<title>Docker_Containers&#45;&gt;Web_UI</title>
<path fill="none" stroke="black" d="M712.19,-82.82C719.02,-71.76 728.02,-57.18 735.69,-44.75"/>
<polygon fill="black" stroke="black" points="738.72,-46.5 741,-36.15 732.77,-42.82 738.72,-46.5"/>
<text text-anchor="middle" x="744.09" y="-57" font-family="Arial" font-size="10.00">Serves</text>
</g>
</g>
</svg>
